<svg width="76" height="100" viewBox="0 0 76 100" fill="none" xmlns="http://www.w3.org/2000/svg">
<path d="M6.11229 25.131L6.05702 24.9652C5.75962 24.073 4.4721 24.1532 4.28766 25.0754C4.2219 25.4042 3.98195 25.6709 3.66191 25.7709L2.77909 26.0467C1.87058 26.3307 1.835 27.6033 2.72625 27.9376L3.72043 28.3104C4.00807 28.4182 4.22253 28.6631 4.29161 28.9624C4.49485 29.8431 5.71541 29.9289 6.03989 29.0853L6.10988 28.9033C6.21244 28.6367 6.42666 28.4283 6.69605 28.3333L7.79683 27.9447C8.71176 27.6218 8.677 26.3162 7.74618 26.0424L6.75451 25.7507C6.45191 25.6617 6.21203 25.4303 6.11229 25.131Z" fill="#E9F6FB"/>
<path d="M33.8114 3.44206L33.7561 3.27624C33.4587 2.38403 32.1712 2.46419 31.9868 3.3864C31.921 3.71519 31.681 3.98189 31.361 4.08191L30.4782 4.35778C29.5697 4.6417 29.5341 5.91438 30.4253 6.24859L31.4195 6.62141C31.7072 6.72928 31.9216 6.97409 31.9907 7.27342C32.194 8.15415 33.4145 8.23996 33.739 7.39633L33.809 7.21433C33.9115 6.94769 34.1258 6.73937 34.3951 6.64429L35.4959 6.25577C36.4109 5.93286 36.3761 4.62719 35.4453 4.35342L34.4536 4.06175C34.151 3.97275 33.9111 3.74129 33.8114 3.44206Z" fill="#E9F6FB"/>
<path d="M60.4653 20.1661L60.41 20.0002C60.1126 19.108 58.8251 19.1882 58.6407 20.1104C58.5749 20.4392 58.335 20.7059 58.0149 20.8059L57.1321 21.0818C56.2236 21.3657 56.188 22.6384 57.0793 22.9726L58.0735 23.3454C58.3611 23.4533 58.5756 23.6981 58.6446 23.9974C58.8479 24.8782 60.0684 24.964 60.3929 24.1203L60.4629 23.9383C60.5655 23.6717 60.7797 23.4634 61.0491 23.3683L62.1499 22.9798C63.0648 22.6569 63.03 21.3512 62.0992 21.0774L61.1075 20.7857C60.8049 20.6967 60.5651 20.4653 60.4653 20.1661Z" fill="#E9F6FB"/>
<path fill-rule="evenodd" clip-rule="evenodd" d="M61.9311 5.74888C63.5186 5.74888 64.8055 4.46195 64.8055 2.87444C64.8055 1.28693 63.5186 0 61.9311 0C60.3436 0 59.0566 1.28693 59.0566 2.87444C59.0566 4.46195 60.3436 5.74888 61.9311 5.74888ZM61.9311 4.181C62.6527 4.181 63.2377 3.59604 63.2377 2.87444C63.2377 2.15285 62.6527 1.56788 61.9311 1.56788C61.2095 1.56788 60.6245 2.15285 60.6245 2.87444C60.6245 3.59604 61.2095 4.181 61.9311 4.181Z" fill="#E9F6FB"/>
<path d="M33.7277 98.3926C25.627 103.358 10.4705 94.7342 7.8576 83.7591C5.24465 72.784 12.5881 65.6087 19.426 51.6176C22.491 45.3462 7.92824 35.9389 26.4814 26.5316C45.0346 17.1244 44.5825 36.9841 52.874 42.733C61.1655 48.4819 77.6282 46.1301 75.8696 64.6832C74.1109 83.2364 55.7484 78.2715 49.2156 80.8846C42.6828 83.4977 41.8284 93.4277 33.7277 98.3926Z" fill="#0BA7AA"/>
<path fill-rule="evenodd" clip-rule="evenodd" d="M42.4283 49.2387L45.0484 50.7505C45.4491 50.9817 45.5873 51.4951 45.3569 51.8973C45.3564 51.8982 45.3559 51.8991 45.3553 51.9001L43.8444 54.5153C43.6132 54.9156 43.103 55.0528 42.7033 54.8222L40.0832 53.3105C39.6825 53.0793 39.5444 52.5658 39.7748 52.1636C39.7753 52.1627 39.7758 52.1618 39.7763 52.1609L41.2872 49.5456C41.5185 49.1453 42.0287 49.0081 42.4283 49.2387ZM27.3188 70.2745C27.0187 70.0262 26.9635 69.583 27.1983 69.2676L35.1062 58.6464C35.0217 58.3212 34.9767 57.9797 34.9767 57.6276C34.9767 55.4215 36.7437 53.633 38.9234 53.633C41.1031 53.633 42.8702 55.4215 42.8702 57.6276C42.8702 59.0571 42.1283 60.3113 41.0129 61.0171V73.1059C41.0129 73.5118 40.685 73.8409 40.2806 73.8409H38.4949C38.0905 73.8409 37.7626 73.5118 37.7626 73.1059V61.4466C37.5836 61.3909 37.4099 61.3227 37.2428 61.2429L29.8012 71.2379C29.5591 71.5631 29.1002 71.6297 28.7762 71.3867C28.7746 71.3856 28.7731 71.3844 28.7715 71.3832L28.4309 71.1234L26.3386 73.9336C26.1095 74.2413 25.6752 74.3044 25.3686 74.0744C25.3672 74.0733 25.3657 74.0722 25.3642 74.071C25.0563 73.8362 24.9946 73.3961 25.2262 73.0851L27.3188 70.2745ZM38.8359 58.3325C39.3488 58.3325 39.7646 57.9117 39.7646 57.3926C39.7646 56.8735 39.3488 56.4527 38.8359 56.4527C38.323 56.4527 37.9073 56.8735 37.9073 57.3926C37.9073 57.9117 38.323 58.3325 38.8359 58.3325Z" fill="white"/>
<path fill-rule="evenodd" clip-rule="evenodd" d="M42.4283 49.2387L45.0484 50.7505C45.4491 50.9817 45.5873 51.4951 45.3569 51.8973C45.3564 51.8982 45.3559 51.8991 45.3553 51.9001L43.8444 54.5153C43.6132 54.9156 43.103 55.0528 42.7033 54.8222L40.0832 53.3105C39.6825 53.0793 39.5444 52.5658 39.7748 52.1636C39.7753 52.1627 39.7758 52.1618 39.7763 52.1609L41.2872 49.5456C41.5185 49.1453 42.0287 49.0081 42.4283 49.2387ZM27.3188 70.2745C27.0187 70.0262 26.9635 69.583 27.1983 69.2676L35.1062 58.6464C35.0217 58.3212 34.9767 57.9797 34.9767 57.6276C34.9767 55.4215 36.7437 53.633 38.9234 53.633C41.1031 53.633 42.8702 55.4215 42.8702 57.6276C42.8702 59.0571 42.1283 60.3113 41.0129 61.0171V73.1059C41.0129 73.5118 40.685 73.8409 40.2806 73.8409H38.4949C38.0905 73.8409 37.7626 73.5118 37.7626 73.1059V61.4466C37.5836 61.3909 37.4099 61.3227 37.2428 61.2429L29.8012 71.2379C29.5591 71.5631 29.1002 71.6297 28.7762 71.3867C28.7746 71.3856 28.7731 71.3844 28.7715 71.3832L28.4309 71.1234L26.3386 73.9336C26.1095 74.2413 25.6752 74.3044 25.3686 74.0744C25.3672 74.0733 25.3657 74.0722 25.3642 74.071C25.0563 73.8362 24.9946 73.3961 25.2262 73.0851L27.3188 70.2745ZM38.8359 58.3325C39.3488 58.3325 39.7646 57.9117 39.7646 57.3926C39.7646 56.8735 39.3488 56.4527 38.8359 56.4527C38.323 56.4527 37.9073 56.8735 37.9073 57.3926C37.9073 57.9117 38.323 58.3325 38.8359 58.3325Z" fill="white"/>
</svg>
