<svg width="146" height="200" viewBox="0 0 146 200" fill="none" xmlns="http://www.w3.org/2000/svg">
<path d="M11.8348 52.5043L10.6908 49.0723C10.3665 48.0995 8.96262 48.1869 8.76151 49.1924L8.1163 52.4185C8.0446 52.777 7.78296 53.0678 7.43399 53.1769L2.77909 54.6315C1.87058 54.9154 1.835 56.1881 2.72624 56.5223L7.49743 58.3115C7.8113 58.4292 8.04532 58.6964 8.12069 59.023L8.76525 61.8161C8.98704 62.7772 10.3189 62.8708 10.673 61.9502L11.8344 58.9305C11.9395 58.6573 12.159 58.4439 12.4349 58.3465L17.583 56.5295C18.4979 56.2066 18.4632 54.9009 17.5324 54.6272L12.5013 53.1474C12.1872 53.0551 11.9383 52.8148 11.8348 52.5043Z" fill="#FFB870"/>
<path d="M115.835 43.0043L114.691 39.5723C114.366 38.5995 112.963 38.6869 112.762 39.6924L112.116 42.9185C112.045 43.277 111.783 43.5678 111.434 43.6769L106.779 45.1315C105.871 45.4154 105.835 46.6881 106.726 47.0223L111.497 48.8115C111.811 48.9292 112.045 49.1964 112.121 49.523L112.765 52.3161C112.987 53.2772 114.319 53.3708 114.673 52.4502L115.834 49.4305C115.939 49.1573 116.159 48.9439 116.435 48.8465L121.583 47.0295C122.498 46.7066 122.463 45.4009 121.532 45.1272L116.501 43.6474C116.187 43.5551 115.938 43.3148 115.835 43.0043Z" fill="#FFB870"/>
<path d="M64.5351 192.266C49.0351 201.766 20.0345 185.266 15.0348 164.266C10.0352 143.266 24.0863 129.537 37.17 102.766C43.0347 90.7661 15.17 72.766 50.67 54.766C86.17 36.766 85.3049 74.7659 101.17 85.766C117.035 96.7661 148.535 92.2661 145.17 127.766C141.805 163.266 106.67 153.766 94.17 158.766C81.67 163.766 80.0351 182.766 64.5351 192.266Z" fill="#E23267"/>
<path d="M64.8348 7.0043L63.6908 3.57233C63.3665 2.59949 61.9626 2.68689 61.7615 3.69244L61.1163 6.91851C61.0446 7.27702 60.783 7.56783 60.434 7.67688L55.7791 9.13153C54.8706 9.41545 54.835 10.6881 55.7262 11.0223L60.4974 12.8115C60.8113 12.9292 61.0453 13.1964 61.1207 13.523L61.7653 16.3161C61.987 17.2772 63.3189 17.3708 63.673 16.4502L64.8344 13.4305C64.9395 13.1573 65.159 12.9439 65.4349 12.8465L70.583 11.0295C71.4979 10.7066 71.4632 9.40094 70.5324 9.12717L65.5013 7.64744C65.1872 7.55507 64.9383 7.31485 64.8348 7.0043Z" fill="#FFB870"/>
<path fill-rule="evenodd" clip-rule="evenodd" d="M118.5 11C121.538 11 124 8.53757 124 5.5C124 2.46243 121.538 0 118.5 0C115.462 0 113 2.46243 113 5.5C113 8.53757 115.462 11 118.5 11ZM118.5 8C119.881 8 121 6.88071 121 5.5C121 4.11929 119.881 3 118.5 3C117.119 3 116 4.11929 116 5.5C116 6.88071 117.119 8 118.5 8Z" fill="#FFB870"/>
<g filter="url(#filter0_d)">
<rect x="44" y="95.9295" width="38.3633" height="52.4298" rx="4" transform="rotate(-15 44 95.9295)" fill="white"/>
</g>
<circle cx="68.2967" cy="112.854" r="7.67266" fill="#0CD4D8"/>
<g filter="url(#filter1_d)">
<rect x="65.8262" y="98.7879" width="38.3633" height="52.4298" rx="4" transform="rotate(5.69402 65.8262 98.7879)" fill="white"/>
</g>
<circle cx="82.3631" cy="125.642" r="7.67266" fill="#3459DE"/>
<defs>
<filter id="filter0_d" x="40" y="79.0004" width="58.6259" height="68.5725" filterUnits="userSpaceOnUse" color-interpolation-filters="sRGB">
<feFlood flood-opacity="0" result="BackgroundImageFix"/>
<feColorMatrix in="SourceAlpha" type="matrix" values="0 0 0 0 0 0 0 0 0 0 0 0 0 0 0 0 0 0 127 0"/>
<feOffset dy="-3"/>
<feGaussianBlur stdDeviation="2"/>
<feColorMatrix type="matrix" values="0 0 0 0 1 0 0 0 0 0 0 0 0 0 0.294117 0 0 0 0.12 0"/>
<feBlend mode="normal" in2="BackgroundImageFix" result="effect1_dropShadow"/>
<feBlend mode="normal" in="SourceGraphic" in2="effect1_dropShadow" result="shape"/>
</filter>
<filter id="filter1_d" x="56.624" y="91.7879" width="51.3759" height="63.9774" filterUnits="userSpaceOnUse" color-interpolation-filters="sRGB">
<feFlood flood-opacity="0" result="BackgroundImageFix"/>
<feColorMatrix in="SourceAlpha" type="matrix" values="0 0 0 0 0 0 0 0 0 0 0 0 0 0 0 0 0 0 127 0"/>
<feOffset dy="-3"/>
<feGaussianBlur stdDeviation="2"/>
<feColorMatrix type="matrix" values="0 0 0 0 1 0 0 0 0 0 0 0 0 0 0.294117 0 0 0 0.12 0"/>
<feBlend mode="normal" in2="BackgroundImageFix" result="effect1_dropShadow"/>
<feBlend mode="normal" in="SourceGraphic" in2="effect1_dropShadow" result="shape"/>
</filter>
</defs>
</svg>
