<svg width="132" height="146" viewBox="0 0 132 146" fill="none" xmlns="http://www.w3.org/2000/svg">
<path d="M50.5351 142.266C35.0351 151.766 6.03448 135.266 1.03482 114.266C-3.96484 93.2661 10.0863 79.5368 23.17 52.766C29.0347 40.7661 1.17 22.766 36.67 4.766C72.17 -13.234 71.3049 24.7659 87.17 35.766C103.035 46.7661 134.535 42.2661 131.17 77.766C127.805 113.266 92.67 103.766 80.17 108.766C67.67 113.766 66.0351 132.766 50.5351 142.266Z" fill="#343BDE"/>
<path d="M40.8348 45.0043L39.6908 41.5723C39.3665 40.5995 37.9626 40.6869 37.7615 41.6924L37.1163 44.9185C37.0446 45.277 36.783 45.5678 36.434 45.6769L31.7791 47.1315C30.8706 47.4154 30.835 48.6881 31.7262 49.0223L36.4974 50.8115C36.8113 50.9292 37.0453 51.1964 37.1207 51.523L37.7653 54.3161C37.987 55.2772 39.3189 55.3708 39.673 54.4502L40.8344 51.4305C40.9395 51.1573 41.159 50.9439 41.4349 50.8465L46.583 49.0295C47.4979 48.7066 47.4632 47.4009 46.5324 47.1272L41.5013 45.6474C41.1872 45.5551 40.9383 45.3148 40.8348 45.0043Z" fill="#FFE58A"/>
<path d="M67.8348 38.0043L66.6908 34.5723C66.3665 33.5995 64.9626 33.6869 64.7615 34.6924L64.1163 37.9185C64.0446 38.277 63.783 38.5678 63.434 38.6769L58.7791 40.1315C57.8706 40.4154 57.835 41.6881 58.7262 42.0223L63.4974 43.8115C63.8113 43.9292 64.0453 44.1964 64.1207 44.523L64.7653 47.3161C64.987 48.2772 66.3189 48.3708 66.673 47.4502L67.8344 44.4305C67.9395 44.1573 68.159 43.9439 68.4349 43.8465L73.583 42.0295C74.4979 41.7066 74.4632 40.4009 73.5324 40.1272L68.5013 38.6474C68.1872 38.5551 67.9383 38.3148 67.8348 38.0043Z" fill="#FFE58A"/>
<path d="M89.8348 69.0043L88.6908 65.5723C88.3665 64.5995 86.9626 64.6869 86.7615 65.6924L86.1163 68.9185C86.0446 69.277 85.783 69.5678 85.434 69.6769L80.7791 71.1315C79.8706 71.4154 79.835 72.6881 80.7262 73.0223L85.4974 74.8115C85.8113 74.9292 86.0453 75.1964 86.1207 75.523L86.7653 78.3161C86.987 79.2772 88.3189 79.3708 88.673 78.4502L89.8344 75.4305C89.9395 75.1573 90.159 74.9439 90.4349 74.8465L95.583 73.0295C96.4979 72.7066 96.4632 71.4009 95.5324 71.1272L90.5013 69.6474C90.1872 69.5551 89.9383 69.3148 89.8348 69.0043Z" fill="#FFE58A"/>
<path d="M68.1133 62.1055L72.2188 58L76.3243 62.1055L72.2188 66.211L68.1133 62.1055Z" fill="#EEEFFF"/>
<path d="M22 108.223L66.457 63.7655L70.5625 67.871L26.1055 112.328L22 108.223Z" fill="#EEEFFF"/>
</svg>
