<?xml version="1.0" encoding="UTF-8" standalone="no"?>
<svg width="40px" height="40px" viewBox="0 0 40 40" version="1.1" xmlns="http://www.w3.org/2000/svg" xmlns:xlink="http://www.w3.org/1999/xlink">
    <!-- Generator: Sketch 47.1 (45422) - http://www.bohemiancoding.com/sketch -->
    <title>help center icon copy</title>
    <desc>Created with Sketch.</desc>
    <defs></defs>
    <g id="Page-1" stroke="none" stroke-width="1" fill="none" fill-rule="evenodd">
        <g id="help-center-icon-copy" stroke="#143242" stroke-width="0.3" fill="#143242" fill-rule="nonzero">
            <g id="Group-2" transform="translate(5.000000, 2.000000)">
                <path d="M29.2857143,0 L3.57142857,0 C1.60214286,0 0,1.42344231 0,3.17307692 L0,27.9230769 L0,29.8269231 C0,31.5765577 1.60214286,33 3.57142857,33 L13.9285714,33 C14.3228571,33 14.6428571,32.7163269 14.6428571,32.3653846 C14.6428571,32.0144423 14.3228571,31.7307692 13.9285714,31.7307692 L3.57142857,31.7307692 C2.39,31.7307692 1.42857143,30.8765769 1.42857143,29.8269231 L1.42857143,27.9230769 C1.42857143,26.8734231 2.39,26.0192308 3.57142857,26.0192308 L28.5714286,26.0192308 L28.5714286,27.9230769 L28.5714286,29.8269231 C28.5714286,30.8765769 27.61,31.7307692 26.4285714,31.7307692 C26.0335714,31.7307692 25.7142857,32.0144423 25.7142857,32.3653846 C25.7142857,32.7163269 26.0335714,33 26.4285714,33 C28.3978571,33 30,31.5765577 30,29.8269231 L30,27.9230769 L30,25.3846154 L30,0.634615385 C30,0.283673077 29.6807143,0 29.2857143,0 Z M3.57142857,24.75 C2.76428571,24.75 2.02714286,24.9981346 1.42857143,25.4011154 L1.42857143,3.17307692 C1.42857143,2.12342308 2.39,1.26923077 3.57142857,1.26923077 L28.5714286,1.26923077 L28.5714286,24.75 L3.57142857,24.75 Z" id="Shape"></path>
                <path d="M23.744856,5 L6.25514403,5 C5.86897119,5 5.55555556,5.298 5.55555556,5.66666667 L5.55555556,12.3333333 C5.55555556,12.702 5.86897119,13 6.25514403,13 L23.744856,13 C24.1317284,13 24.4444444,12.702 24.4444444,12.3333333 L24.4444444,5.66666667 C24.4444444,5.298 24.1317284,5 23.744856,5 Z M23.0452675,11.6666667 L6.95473251,11.6666667 L6.95473251,6.33333333 L23.0452675,6.33333333 L23.0452675,11.6666667 Z" id="Shape"></path>
                <path d="M24.8518519,27 L5.14814815,27 C4.7597037,27 4.44444444,27.2979998 4.44444444,27.6666662 C4.44444444,28.0353326 4.7597037,28.3333324 5.14814815,28.3333324 L16.4074074,28.3333324 L16.4074074,35.3333275 C16.4074074,35.5706606 16.5404074,35.7906605 16.7578519,35.9099937 C16.9745926,36.0286603 17.242,36.0306603 17.4601481,35.9119937 L19.5740741,34.7673279 L21.688,35.9119937 C21.7956667,35.9706604 21.9167037,35.9999937 22.037037,35.9999937 C22.1594815,35.9999937 22.2812222,35.9699937 22.3902963,35.9099937 C22.607037,35.7906605 22.7407407,35.5706606 22.7407407,35.3333275 L22.7407407,28.3333324 L24.8518519,28.3333324 C25.241,28.3333324 25.5555556,28.0353326 25.5555556,27.6666662 C25.5555556,27.2979998 25.241,27 24.8518519,27 Z M21.3333333,34.183995 L19.9231111,33.4206622 C19.7070741,33.3033289 19.4403704,33.3033289 19.225037,33.4206622 L17.8148148,34.183995 L17.8148148,28.3333324 L21.3333333,28.3333324 L21.3333333,34.183995 Z" id="Shape"></path>
                <path d="M5.13409962,30 C4.75340996,30 4.44444444,30.2235 4.44444444,30.5 C4.44444444,30.7765 4.75340996,31 5.13409962,31 L13.7547893,31 C14.1354789,31 14.4444444,30.7765 14.4444444,30.5 C14.4444444,30.2235 14.1354789,30 13.7547893,30 L5.13409962,30 Z" id="Shape"></path>
            </g>
        </g>
    </g>
</svg>