<svg xmlns="http://www.w3.org/2000/svg" xmlns:xlink="http://www.w3.org/1999/xlink" width="882" height="918"><style><![CDATA[.B{fill-rule:nonzero}.C{fill:#2d271e}.D{fill:#ffbba2}.E{fill:#763820}]]></style><defs><linearGradient x1="50.0775025%" y1="46.3867483%" x2="93.3789887%" y2="50.7876247%" id="A"><stop stop-color="#fff" offset="0%"/><stop stop-color="#fff" stop-opacity="0" offset="100%"/></linearGradient><path id="B" d="M214.84 370c20.428 0 37-16.335 37-36.5s-16.572-36.5-37-36.5-37 16.335-37 36.5 16.572 36.5 37 36.5zm0-4c-18.232 0-33-14.557-33-32.5s14.768-32.5 33-32.5 33 14.557 33 32.5-14.768 32.5-33 32.5z"/></defs><g fill-rule="evenodd"><g class="B"><path d="M724 412.65c-.867 1.133-1.467 2.033-1.8 2.7-.433 1.067-.583 2.35-.45 3.85 0 .6.183 1.833.55 3.7l16.55-2.15 1.2-8.85c.367-3.8-1.35-5.6-5.15-5.4h-8.5c0 1.3-.217 2.483-.65 3.55-.3.567-.883 1.433-1.75 2.6z" fill="#34313d"/><path d="M879.9 23.7V9.25l-483.75-.7-1.4.35c-.367.267-.617.483-.75.65-.3.333-.45.533-.45.6l-.45 585.15a45.84 45.84 0 0 0 .25 4.85c0 .233.1.517.3.85.167.3.35.567.55.8l.3.5 15.1.65v-.3L410 24.5l15.4-.55 454.5-.25z" fill="url(#A)"/><path d="M390.84 672V4h249a2 2 0 1 0 0-4h-251a2 2 0 0 0-2 2v672a2 2 0 0 0 2 2h491a2 2 0 1 0 0-4h-489zm21-23V26h178a2 2 0 1 0 0-4h-180a2 2 0 0 0-2 2v627a2 2 0 0 0 2 2h400a2 2 0 1 0 0-4h-398z" fill="#c8c9d8"/><path d="M592.74 586.7l-.45.55-4.4 6.55-14.2 20.75c-2.1 3.167-4.517 6.95-7.25 11.35a128.48 128.48 0 0 0-3.2 4.95L553 647.2l.15.4.4.75.55.55c.067.067.317.15.75.25l.85.1 229.5-.15c-.5-.833-1.15-1.533-1.95-2.1-1.433-1.033-3.25-1.833-5.45-2.4-1.367-.367-3.383-.717-6.05-1.05-26.067-3.1-51.683-8.1-76.85-15a539.93 539.93 0 0 1-62.25-21.7c-15.633-6.567-28.933-13.283-39.9-20.15zM430.26 26.1h-17.217l-.832 3.275c-.347 1.057-.52 1.978-.52 2.763v579.497l4.577.46 42.86 3.94a15.83 15.83 0 0 1 1.82.102l1.352.05a9.45 9.45 0 0 1 1.3.102 9.05 9.05 0 0 1 1.352.102c.07 0 .156.034.26.102l3.017.205h.208c.14 0 .364-.102.676-.307a1.91 1.91 0 0 0 .468-.358c.347-.273.867-.733 1.56-1.38l3.225 6.447 1.04-.4-2.6-9.926c.45-.307 1.127-.716 2.03-1.228l.572-.4c1.04-.58 1.82-1.143 2.34-1.688l37.138-38.22a15.89 15.89 0 0 1 .728-.767l5.097-5.168 17.477-18.266 6.502-6.958a7.47 7.47 0 0 1-.52-.767c-10.1-14.974-20.25-33.667-30.48-56.077-24.863-54.68-44.1-114.303-57.684-178.874-2.982-14.02-5.704-28.26-8.166-42.723l-2.34-14.684c-10.23-66.276-15.275-138.607-15.136-216.992 0-.648-.035-1.262-.104-1.842z" fill="#e4e5f0"/></g><g fill="#4e4a59"><path d="M137.84 594c-11 13-18 20-36 31s-72 22-83 49-15 123-15 137-6 91-3 98 59 7 72 7h202l39-93-49-101-113-128c-2-8.667-6.667-8.667-14 0z"/><path d="M339.84 915c-2-41 1-84 4-109s5-57 12-60 98-25 115-33 42-11 55-27 101-142 101-157-43-46-48-43-102 119-108 120-78-1-94-3-63-10-79-25c-10.667-10-27.333 63-50 219v50l-34 68c80.667 3.333 122.667 3.333 126 0z"/></g><g class="B"><path d="M101.14 768.1l-2.1.1-4.2 118.05v8c.267 3 1.083 5.583 2.45 7.75.3.5.367 1.317.2 2.45l-.4 3.15.1-.65v6c0 1.033-.1 1.933-.3 2.7h3.2c-.067-.133-.1-.267-.1-.4l-.3-8c0-1 .1-1.817.3-2.45l-.85-7.55c-.5-3.8-.717-7-.65-9.6.067-5.133.283-11.9.65-20.3L99.9 847l1.8-65.55v-5.2c.067-1.067 0-2.417-.2-4.05l-.35-4.1zm373.877-155.925l1.176 2.3.766 1.55.75 1.495 1.44 2.574c2.23 3.445 3.853 6.317 7.4 12.873l3.612 6.6a1.5 1.5 0 1 0 2.612-1.477l-3.583-6.54c-3.574-6.626-5.224-9.544-7.5-13.078-.62-.96-.596-.9-2.788-5.322l-1.216-2.378c-1.124-2.106-2.038-3.498-2.963-4.335-1.593-1.442-3.5-1.22-4.56.795-1.827 3.442-.476 9.837 3.142 18.958a154.11 154.11 0 0 0 2.506 5.924c1.048 2.35 2.132 4.663 3.43 7.352-.193-.4 2.035 4.188 2.38 4.928a1.5 1.5 0 1 0 2.721-1.264l-2.398-4.968-3.392-7.27c-.906-2.032-1.726-3.965-2.457-5.808-3.217-8.1-4.478-14-3.322-16.365.58.557 1.335 1.72 2.267 3.465z" fill="#413e4a"/><path d="M257.7 438.8c9.467-.8 16.217-3.35 20.25-7.65a9.76 9.76 0 0 0 1.3-1.6L232 433c6.5 4.667 15.067 6.6 25.7 5.8z" fill="#fff"/><g class="C"><path d="M254.675 146.05c-2.17 1.87-4.756 2.9-7.76 3.056-1.135.134-3.872.017-8.2-.35-1.936-.2-4.34-.05-7.2.45l-7.86 1.403-1.802-1.202c-3.605-2.505-6.775-3.84-9.512-4.008-3.37-.2-6.525 1.236-9.462 4.308-.868.868-2.854 1.136-5.958.802-7.4-.367-13.017 2.288-16.82 7.966-.334.434-1.185 1.336-2.553 2.705-6.408-.3-10.764.167-13.067 1.403-2.37 1.303-5.74 5.1-10.113 11.422-7.843-2.07-14.285-1.637-19.325 1.303-5.24 3.073-8.828 8.684-10.764 16.833-7.376-1.002-12.583.852-15.62 5.56-1.235 1.97-2.787 7.047-4.656 15.23-5.374 1.804-8.845 3.774-10.413 5.912-1.535 2.104-2.303 5.878-2.303 11.322-.067 3.173-.2 5.127-.4 5.862a7.88 7.88 0 0 1-3.254 4.96c-.434.3-.784.835-1.05 1.603-.367 1.07-.55 2.538-.55 4.4 0 .534.284 3.958.85 10.27-.267.434-.517.868-.75 1.303v.2c.006-.302.223-.485.65-.55.5 0 .818.15.95.45.234.434.134 1.152-.3 2.154-2.17 4.876-3.354 9.87-3.555 14.98-.167 5.477.868 10.437 3.104 14.88 1.235 2.472 1.92 4 2.053 4.56.3 1.202.267 3.073-.1 5.6-.367 3.373-.55 5.912-.55 7.615 0 2.806.367 5.26 1.1 7.364.5 1.436 1.402 3.2 2.703 5.26 1.77 2.806 2.804 4.5 3.104 5.1.668 1.07.985 2.037.95 2.906 0 .7-.417 1.737-1.252 3.106l-.35.65c-.434 4.04-.317 7.448.35 10.22.935 3.24 2.97 6.296 6.108 9.168 1.535 1.47 3.905 3.574 7.1 6.312 2.47 2.64 4.1 5.394 4.856 8.266.3 1.17 2.036 2.755 5.207 4.76.7.5 3.354 1.97 7.96 4.4a11.12 11.12 0 0 1-.651-.401c.234-2.037.7-4.208 1.402-6.513v-.1a18.82 18.82 0 0 0 1.1-.65l.85-1.052c.634-1.002 1.418-2.655 2.353-4.96 2.37-4.04 5.273-6.53 8.7-7.465 3.404-1.002 7.193-.45 11.364 1.653a1.15 1.15 0 0 0 .3.2h.1l3.154 1.703c.434.3.968.6 1.602.902.367.468.684.885.95 1.252h.1c1.168 0 2.22-.25 3.154-.75l1.602-1.303c.3-.4.584-.718.85-.952v-.1l-2.053.852-.5-7.515-3.354-48.245-.75-9.82c-.134-2.305-.033-5.143.3-8.517.167-1.87.467-4.7.9-8.517 1-10.855 5.374-20.273 13.117-28.255 1-1.07 2.587-2.7 4.756-4.86l10.363-10.47c4.305 4.843 9.228 7.932 14.77 9.268 4.94 1.102 10.58.935 16.922-.5 1.202-.167 2.954.184 5.257 1.052.434.134.935.35 1.502.65.935.5 2.086 1.22 3.454 2.154 8.6 4.175 16.054 3.457 22.328-2.154 1.368-1.236 2.72-2.74 4.055-4.5l1.952-2.806c6.24 2.07 11.415 2.755 15.52 2.054 3.037-.534 5.774-1.87 8.2-4.008a20.58 20.58 0 0 0 3.104-3.457 8.81 8.81 0 0 1 .45-1.854c.267-.768.668-1.687 1.202-2.755.834-1.47 1.302-2.338 1.402-2.605a2.31 2.31 0 0 1 .3-.651 9.67 9.67 0 0 1 .45 1.403c.868 2.37 2.336 4.1 4.406 5.16 6.8 3.373 12.115 8.05 15.92 14.028.734 1.17 1.435 2.42 2.103 3.757 2.703 5.477 4.34 11.9 4.906 19.238a1.65 1.65 0 0 0 .05.401l2.353 35.72c0 .267.033.55.1.852v.45c.8.434 1.585.935 2.353 1.503l3.805 3.006a3.76 3.76 0 0 0 .401.351 2.93 2.93 0 0 1 .25.301c.134.134.3.284.5.45a2.45 2.45 0 0 1 .35.3c.067.067.167.15.3.25 7.276 7.314 10.914 16.148 10.914 26.502a48.86 48.86 0 0 1-.25 4.96c.033-.067.083-.1.15-.1l-.35 1.503c-.267 1.17-.834 3.106-1.702 5.8l-1.852 4.66c-.367.802-1.05 1.954-2.053 3.457l-3.655 5.26c.3-.2.65-.384 1.05-.55 1.302-.635 2.703-1.77 4.205-3.407.868-.935 2.07-2.388 3.605-4.36l.4-.4c.167-.434.417-1.02.75-1.753.367-1.002.734-1.67 1.1-2.004a14.55 14.55 0 0 0 5.457-7.465l.35-1.303a10.03 10.03 0 0 1 .2-.551c.434-2.004.65-4.442.65-7.314 0-2.37.55-4.36 1.652-5.962 2.937-3.874 4.2-9.034 3.755-15.48 0-.668-.083-1.787-.25-3.357-.134-1.303.017-2.27.45-2.906.367-.6.7-1.22 1-1.854 1.268-2.806 1.802-5.862 1.602-9.168-.167-2.438-.968-6.112-2.403-11.022l-1.15-3.557c-.3-1.436-.267-2.538.1-3.306 1.635-3.607 2.286-7.465 1.952-11.573-.167-2.94-.968-6.747-2.403-11.422-.567-2.138-.85-4.192-.85-6.162-.067-1.27.033-2.522.3-3.757v-.4c1.535-7.047.1-13.7-4.305-20-.7-1.07-1.702-2.32-3.004-3.757l-3.304-3.657c.935-9.52-.217-17.1-3.454-22.745-3.338-5.912-8.9-9.368-16.72-10.37-3.17-6.613-6.76-11.356-10.764-14.228-3.905-2.872-9.345-4.642-16.32-5.3l-4.806-5.06c-1.67-1.737-3.187-2.856-4.556-3.357h-.2c-1.368-.5-3.17-.635-5.407-.4-2.737.5-4.8.785-6.158.852-2.804-3.44-4.7-5.628-5.657-6.563-1.235-1.236-2.537-2.037-3.905-2.405-1.57-.434-2.937-.15-4.105.852zm68.753 167.212l-.194-.2c-.58-.735-1.2-1.453-1.9-2.154l-2.277-2.154-1.356-1.102-.872-.65v.55l2.325 42.28.824 8.617v.55c.194-.167.37-.384.533-.65l.824-.902c1.26-1.503 2.9-3.2 4.893-5.06 3.068-5.177 4.602-11.038 4.602-17.584a35.79 35.79 0 0 0-.097-2.655v-.25c-.3-3.874-1.13-7.464-2.52-10.77a3.41 3.41 0 0 0-.194-.35l-.533-1.152c-1.098-2.238-2.454-4.358-4.07-6.362z"/><path d="M316.84 302.39c.558 4.057.686 8.2 1.675 12.17 1.934 7.768 6.657 14.726 7.068 22.938 1.192 23.802-1.06 8.15-5.332 21.664-.278.878-.35 2.5.53 2.716 1.658.405 3.634-.253 4.93-1.38 4.002-3.478 8.385-7.102 10.486-12.017 5.514-12.9 15.13-76.617-18.324-48.306l-1.034 2.214z"/></g><path d="M521.64 685.5l.2-.3c-.133.067-.267.1-.4.1l.2.2z" fill="#000"/><g fill="#e4e5f0"><path d="M602.04 465.95l-3.55-2.5h.1c-.067-.067-.133-.1-.2-.1-.067.067-.133.167-.2.3-.167.167-.317.35-.45.55l-9.9 11v.1c-.067 0-.1.033-.1.1h-.1l-.1.1-3.55 4.4-4.85 6.05 5.25 1.85a10.35 10.35 0 0 0 1.3.5l-.2.25c6.067 3.167 12.45 7.75 19.15 13.75 3.367 2.933 8.033 7.25 14 12.95.267.433.7.967 1.3 1.6l2.55 3.9c1.1 1.933 2.217 4.05 3.35 6.35l.75 1.4c.067-.233.167-.467.3-.7.933-2 1.983-4.5 3.15-7.5l2.8-7.55c1.3-3.6 3.167-9.2 5.6-16.8l1.7-.55-.55.15c-1.433-.8-2.833-2.35-4.2-4.65-.067-.133-.133-.233-.2-.3-1.367-.533-3.583-2.483-6.65-5.85-6.267-7.1-13.85-12.65-22.75-16.65-1.067-.433-2.317-1.15-3.75-2.15zM258.8 655.25l-4.2 7.8-4.4 7.85c-2.033 3.5-2.517 7.217-1.45 11.15a1.47 1.47 0 0 0 .05.35c2.333 8.1 6.45 17.9 12.35 29.4l14.55 28.75 1.6-3.6a17.82 17.82 0 0 1 .65-1.6c1.2-3.067 2.45-6.433 3.75-10.1 3.667-10.7 7.717-24.4 12.15-41.1 4.233-16.033 7.183-28.85 8.85-38.45-6.033 11.2-13.033 21.9-21 32.1-.067.133-.167.267-.3.4-1.3 1.567-2.45 2.65-3.45 3.25a3.7 3.7 0 0 1-.65.3c-1.8.633-3.417.283-4.85-1.05-.867-.8-1.617-2.1-2.25-3.9l-9.15-24.65c-1 1.167-1.75 2.2-2.25 3.1z"/><path d="M237.29 682.794c-7.03 18.364-12.612 34.066-16.75 47.106-1.333 4-2.65 9.083-3.95 15.25l-3.25 15.3c-.067.067-.1.133-.1.2-5.867-6.8-16.2-26.817-31-60.05l-6.15-14c-6.6-15.26-11.488-27.43-14.66-36.51-2.198-5.39-3.84-10.588-4.787-15.156l.17-.147c-1.297-2.85-2.654-6.146-4.072-9.888-.933-2.433-6.9-14.9-9.05-19.25s-2.683-14.567-2.25-18.3v-.3c.433-4.733 1.233-11.45 2.4-20.15l2.45-20.15c.933-9.333 5.317-15.633 13.15-18.9 1.933-.8 3.367-1.75 4.3-2.85.567-.7 4.833-.067 5.1-1l3 3c.133 2.233-3.133 1-3 3 0 1.167-1.067 3.867-1 5-.067-.633 3-1.4 3-2-.2.033-.767-.2-1 0-1.933 1.167 2.367 3.667 2 4-1.333 1 1.283.25.75 1.25l-.4 1.3.1 1.3c.133 1 .317 1.717.55 2.15.267.5.7 1.083 1.3 1.75l-5.3 3.25c.433.433-.633-.067 1 2 .633.733-2.533 1.7-2 2 .067.067.933-1.067 1-1 .2.367-1.6 1.75-1 2.25 1.067.867 1.733 1.5 2 1.9l.75 1c.3.433.667.783 1.1 1.05 1.567 1.433 2.6 2.3 3.1 2.6 1.367 1 3.067 2.083 5.1 3.25.5.333.967.583 1.4.75l2.55 2.15c4.533 3.867 8.2 6.883 11 9.05 5.867 4.5 22.8 7.533 35 16 2.16 1.64-4.04 6.322-2.8 7.15-.148-.073 8.952-4.056 8.8-4.15.067.133-6.067 1.9-6 2 .1.267 7.533-3.433 8-3 1.9 1.8 2.1.5 3 1v4c1.1.2-1.25 7.483-.45 6.55.767-1.133 1.367-1.983 1.8-2.55.133-.167.567-.6 1.3-1.3a1.57 1.57 0 0 1-.15-.1 2.38 2.38 0 0 0 .35.1l1.95-2.45.65-1.2 21.5-30.5c1.4-1.333 2.733-2.767 4-4.3 2.6-3.2 4.583-5.917 5.95-8.15.067-.133.133-.217.2-.25.367-.633.65-1.233.85-1.8.133-1-.117-1.717-.75-2.15h-.1a2.2 2.2 0 0 0-.75-.35v-.1c.267-2.733-2.017-3.583-3.35-9.45l-1-7c-.4-1.633 1.333-3.3 1.3-4.1l-.2-3.85c.667 1 1.633 1.917 2.9 2.75l1.1.7c1.367.933 2.617 1.933 3.75 3 5.6 5.167 8.983 12.15 10.15 20.95.433 3.467 1.333 8.167 2.7 14.1l3 10.9a7.31 7.31 0 0 0 .5.75.23.23 0 0 1 0 .1c.51 2.533 1.06 4.933 1.65 7.2-.133-.067-.217-.1-.25-.1a5.47 5.47 0 0 0 .05.65c-.033.067-.033.133 0 .2.267 3.333.433 5.067.5 5.2l3.65 16.7 3.25 16c-.082.454-.173.92-.275 1.398.33 6.96-1.975 13.927-4.13 20.568-3.044 9.374-6.2 18.982-11.722 27.145-3.287 4.858-8.96 7.634-13.923 10.76-2.226 1.402-4.86 3.278-7.424 2.68-2.6-.606-2.95-5.44-5.605-5.717-8.812-.924-17.722.56-26.522 1.81z"/></g><path d="M668.14 379.95c-5.1.9-10.083 3.467-14.95 7.7-11.767 10.267-22.717 23.983-32.85 41.15-2.3 3.933-5.45 8.817-9.45 14.65l-9.7 14.5c-1.167 2.367-2.1 4.167-2.8 5.4.067 0 .133.033.2.1h-.1c.733.567 1.917 1.4 3.55 2.5 1.433 1 2.683 1.717 3.75 2.15 8.9 4 16.483 9.55 22.75 16.65 3.067 3.367 5.283 5.317 6.65 5.85.067.067.133.167.2.3 1.367 2.3 2.767 3.85 4.2 4.65l.55-.15.55-.2c14-5.3 23.867-13.7 29.6-25.2 3.533-7.033 8.233-12.55 14.1-16.55l12.4-8.5h.1c4.667-3.167 8.9-5.75 12.7-7.75 3.933-2.1 6.55-3.867 7.85-5.3 2.133-2.3 2.967-5.2 2.5-8.7l2.35-.3c-.367-1.867-.55-3.1-.55-3.7-.133-1.5.017-2.783.45-3.85.333-.667.933-1.567 1.8-2.7.867-1.167 1.45-2.033 1.75-2.6.433-1.067.65-2.25.65-3.55h-.1c-.867-3.867-2.2-6.833-4-8.9-1.933-1.967-4.983-3.7-9.15-5.2l-16.25-5.45c-4.9-1.733-8.95-3.25-12.15-4.55-5.9-2.433-11.433-3.25-16.6-2.45z" class="D"/><g fill="#ffcb87"><path d="M710.34 411.9l4.1.1h-1c-.433 1.167-.617 2.567-.55 4.2.033.8.183 1.8.45 3L697 426.3l-.1.1-8.85 3.7c-3.5 1.433-6.55 2.5-9.15 3.2-4.367 1.167-7.333 1.1-8.9-.2-1.533-1.3-2.3-4.25-2.3-8.85l.75-2.15c7.767-3.067 14.55-5.383 20.35-6.95a82.04 82.04 0 0 1 8.1-1.75c4.667-.867 9.15-1.367 13.45-1.5z"/><path d="M672.64 424.6c-.433.133-.933.667-1.5 1.6l-1.8 3.05c4.567.333 9.05-.5 13.45-2.5 1.767-.8 5.383-2.95 10.85-6.45l-21 4.3zm-492 32.5c.067.133.1.233.1.3l-1.1-2.1c.367.433.7 1.033 1 1.8z"/></g><path d="M714.44 412l-4.1-.1c-4.3.133-8.783.633-13.45 1.5a82.04 82.04 0 0 0-8.1 1.75c-5.8 1.567-12.583 3.883-20.35 6.95l-.75 2.15c0 4.6.767 7.55 2.3 8.85 1.567 1.3 4.533 1.367 8.9.2 2.6-.7 5.65-1.767 9.15-3.2 2-.8 4.95-2.033 8.85-3.7l.1-.1c3.667-1.5 9.117-3.867 16.35-7.1-.267-1.2-.417-2.2-.45-3-.067-1.633.117-3.033.55-4.2h1z" fill="#34313d"/><path d="M180.74 457.4c0-.067-.033-.167-.1-.3-.3-.767-.633-1.367-1-1.8l1.1 2.1z" fill="#be8b48"/></g><path d="M165.608 532.614c0-20.052 1.023-106.275-6.135-113.293s-25.563-14.036-29.653-26.067-12.27-32.083 4.1-40.104 21.473 7.018 23.518 5.013-4.1-55.142-4.1-62.16 1.023-38.098 9.203-47.122 17.383-20.052 21.473-20.052 6.135 10.026 17.383 10.026 14.315-3.008 18.405-3.008 8.18 12.03 18.405 9.023 15.338-13.034 17.383-13.034 10.225 4 16.36 2.005 12.27-15.04 15.338-15.04 12.27 10.026 17.383 17.044 13.293 18.047 13.293 55.142 7.158 127.33 7.158 140.363-1.023 36.093-8.18 50.13-36.81 25.065-41.924 36.093 4.1 30.078 5.113 32.083-35.788 56.145-38.856 56.145-70.554-44.114-74.644-54.14c-2.045-8.02-1.023 1.003-1.023-19.05z" class="D"/><path d="M181.713 464.245c-.502-.94-1.003-2.23-1.505-3.872l-.903-2.916c-.134-.302-.2-.52-.2-.654-.368.2-.62.587-.752 1.156-.268.737-.3 1.542-.1 2.413.87 4.458 2.492 9.25 4.866 14.38 1.572 3.453 3.946 7.96 7.124 13.525 5.686 9.955 10.685 17.816 15 23.58 6.12 8.18 12.558 14.75 19.314 19.7 6.154 4.56 13.077 8.095 20.77 10.61 5.987 1.877 10.886 2.128 14.7.754 2.14-.838 4.732-2.665 7.776-5.48 3-2.547 5.017-4.86 6.02-6.94.57-1.106 1.003-2.698 1.304-4.777-.2-.436-.3-.838-.3-1.207h-.05c-.2-1.374-.084-2.85.35-4.425-.435-.2-.97-.268-1.605-.2-1.07.067-2.1.536-3.06 1.408h-22.023c-10.736.37-20.3-2.765-28.695-9.402a.33.33 0 0 1-.15-.151c-2.508-2.01-4.95-4.09-7.324-6.235-3.378-3.117-6.572-6.37-9.582-9.754-6.588-7.508-12.425-15.804-17.508-24.888l-3.46-6.637z" fill="#be7962" class="B"/><path d="M204.84 418c6-11 37-30 43-30s17-4 31 2 25 15 28 26 7 46 7 52 0 15-2 20-13 19-23 25-21 9-27 9-48 1-51-19-12-74-6-85z" class="C"/><g class="B"><path d="M236.84 313.5c-6.6-6.6-14.533-9.9-23.8-9.9s-17.167 3.3-23.7 9.9c-6.6 6.533-9.9 14.467-9.9 23.8s3.3 17.3 9.9 23.9c6.533 6.533 14.433 9.8 23.7 9.8s17.2-3.267 23.8-9.8c6.567-6.6 9.85-14.567 9.85-23.9s-3.283-17.267-9.85-23.8z" class="D"/><path d="M289.8 326.55c-1.867-1.867-4.1-2.8-6.7-2.8a9.22 9.22 0 0 0-1.4.1c-1.367.2-2.617.7-3.75 1.5-.5.3-1 .7-1.5 1.2-1.867 1.867-2.8 4.117-2.8 6.75 0 2.6.933 4.833 2.8 6.7a13.04 13.04 0 0 0 1.5 1.3c1.133.767 2.383 1.233 3.75 1.4a9.22 9.22 0 0 0 1.4.1c2.6 0 4.833-.933 6.7-2.8a9.31 9.31 0 0 0 2.7-6.7c0-2.633-.9-4.883-2.7-6.75z" class="E"/><path d="M190.812 289.2c10.192-12.036 16.907-12.623 28.87-2.848a2.5 2.5 0 1 0 3.164-3.872c-14.068-11.494-23.9-10.636-35.85 3.5a2.5 2.5 0 1 0 3.816 3.231zm77.884-5.822c9.623-10.45 18.957-10.906 27.878-.992a2.5 2.5 0 0 0 3.717-3.344c-10.98-12.204-23.734-11.58-35.272.95a2.5 2.5 0 0 0 3.678 3.387z" class="C"/><path d="M220.14 329.35c-1.867-1.867-4.1-2.8-6.7-2.8-2.633 0-4.85.933-6.65 2.8-1.867 1.867-2.8 4.117-2.8 6.75 0 2.6.933 4.833 2.8 6.7 1.8 1.867 4.017 2.8 6.65 2.8 2.6 0 4.833-.933 6.7-2.8a9.31 9.31 0 0 0 2.7-6.7c0-2.633-.9-4.883-2.7-6.75z" class="E"/><path d="M224.24 429.35c-.167 0-.317.217-.45.65l-.3.75c8.367 9.967 20.2 14.167 35.5 12.6 7.233-.667 13.55-2.467 18.95-5.4 1.3-.733 2.55-1.517 3.75-2.35 4.4-3.1 8.067-7.083 11-11.95l-68.45 5.7z" class="D"/></g><path d="M231.225 436.07c10.385 14.322 44.312 17.123 50.273-3.66" fill="#fff"/><g class="B"><g class="C"><use xlink:href="#B"/><use xlink:href="#B" x="80"/></g><path d="M258.047 342.845l1.034 2.204 1.37 2.964 3.307 7.64c1.412 3.467 2.627 6.777 3.608 9.904 2.69 8.568 3.408 15.133 1.78 18.723-1.747 3.854-6.767 4.466-16.548.46a2 2 0 1 0-1.516 3.701c11.514 4.717 18.837 3.823 21.708-2.51 2.166-4.778 1.363-12.11-1.607-21.573-1.017-3.24-2.27-6.653-3.72-10.215-1.052-2.584-2.165-5.142-3.372-7.79l-1.39-3.002-1.03-2.197a2 2 0 1 0-3.626 1.69z" class="E"/><path d="M156.384 355.728l26.5-7.7a2 2 0 1 0-1.116-3.841l-26.5 7.7a2 2 0 1 0 1.116 3.841zm93.793-11.37c1.948-4.1 3.703-6.618 5.043-7.263.93-.447 2.103.5 3.763 4.65a2 2 0 1 0 3.714-1.486c-2.402-6.003-5.54-8.535-9.212-6.768-2.464 1.186-4.577 4.23-6.92 9.147a2 2 0 1 0 3.611 1.72z" class="C"/><path d="M229.7 610.6c-.833.8-1.617 2.2-2.35 4.2l-9.15 23.45c-.567 1.433-.817 2.833-.75 4.2-.433.8-.783 1.883-1.05 3.25-.3 1.933-.417 3.517-.35 4.75l.3.3 2.95 2.6c.267.333.55.65.85.95l15.4 17.15c1.567 1.7 2.5 3.383 2.8 5.05.267 1.633-.033 3.6-.9 5.9-7.1 18.533-12.733 34.367-16.9 47.5-1.333 4-2.65 9.083-3.95 15.25l-3.25 15.3c.8 2.133 2.017 4.467 3.65 7a2.75 2.75 0 0 0 .65.85c.1 1.5.467 2.8 1.1 3.9l3.55 6.65c8.1 14.633 16.883 27.483 26.35 38.55.167.2 1.25 1.05 3.25 2.55l2.45-6.75 8.2-26.8c.8-2.6 1.617-5.117 2.45-7.55l6.15-19.15a39.11 39.11 0 0 0 1.4-5.5c.133-.5.25-1.117.35-1.85.7-3.733 1.85-7.667 3.45-11.8.633-1.467.95-2.583.95-3.35v-.25l-1.6 3.6c-1.1-2.533-5.95-12.117-14.55-28.75-5.9-11.5-10.017-21.3-12.35-29.4a1.47 1.47 0 0 1-.05-.35c-1.067-3.933-.583-7.65 1.45-11.15 1.2-1.867 2.667-4.483 4.4-7.85l4.2-7.8c.5-.9 1.25-1.933 2.25-3.1.2-.2.383-.417.55-.65l2-2.25c.167-.233.317-.417.45-.55.067-.5.067-.967 0-1.4-.067-1.733-.783-4.233-2.15-7.5a6.26 6.26 0 0 1-.45-1 12.71 12.71 0 0 0 .05-1.15c0-1.6-.583-3.267-1.75-5l-14.2-21.7c-2.067-3.4-4.55-5.05-7.45-4.95-2.633.133-5.433 1.667-8.4 4.6z" fill="#65b6b5"/><path d="M156.715 636.992c10.115 11.464 16.833 18.182 20.353 20.294.517.3 6.416 4.08 8.635 5.422 1.2.72 2.32 1.38 3.403 1.986 7.7 4.304 12.544 5.785 14.798 2.9 2.756-3.538 4.755-6.496 9.094-13.24l4.345-6.64a1.5 1.5 0 1 0-2.486-1.68c-1.247 1.846-2.218 3.336-4.382 6.698-4.3 6.667-6.256 9.575-8.938 13.02-.767.985-4.924-.284-10.966-3.665a114.41 114.41 0 0 1-3.316-1.935c-2.175-1.315-8.08-5.088-8.644-5.427-3.147-1.888-9.762-8.504-19.647-19.706a1.5 1.5 0 0 0-2.25 1.985zm112.917 15.8l-3.582-5.14a1.5 1.5 0 1 0-2.42 1.773l3.52 5.054c3.534 5.203 5.192 7.465 7.58 10.082 1.253 1.373 3.086.445 7-2.306 2.967-2.1 6.52-5 9.863-8.148 8.637-8.107 14.336-15.992 14.753-22.002a1.5 1.5 0 1 0-2.993-.207c-.346 4.995-5.7 12.417-13.813 20.022-3.243 3.044-6.7 5.876-9.538 7.883-1.3.917-2.4 1.6-3.208 2.015a7.82 7.82 0 0 1-.342.163c-2-2.264-3.618-4.487-6.8-9.187z" fill="#c8c9d8"/></g></g></svg>