<?xml version="1.0" encoding="UTF-8" standalone="no"?>
<svg width="40px" height="40px" viewBox="0 0 40 40" version="1.1" xmlns="http://www.w3.org/2000/svg" xmlns:xlink="http://www.w3.org/1999/xlink">
    <!-- Generator: Sketch 47.1 (45422) - http://www.bohemiancoding.com/sketch -->
    <title>help center icon copy 4</title>
    <desc>Created with Sketch.</desc>
    <defs></defs>
    <g id="Page-1" stroke="none" stroke-width="1" fill="none" fill-rule="evenodd">
        <g id="help-center-icon-copy-4" fill-rule="nonzero" fill="#143242">
            <g id="Group-33-Copy" transform="translate(6.000000, 4.000000)">
                <g id="Group-7">
                    <g id="Group-18">
                        <path d="M7.60400391,0.00100706519 C7.13710744,0.052880104 6.78677289,0.456788771 6.796875,0.93156435 L6.796875,1.84780537 L6.34375,1.84780537 C4.85323791,1.84780537 3.625,3.08958407 3.625,4.59652842 L3.625,5.71319717 C1.54161236,6.31652676 0,8.25784723 0,10.552095 C0,12.5851074 1.20704208,14.3389215 2.93115234,15.1333001 C1.20460427,15.926556 0,17.677608 0,19.7145052 L0,32.083759 C5.00412267e-05,32.589764 0.405762675,32.9999494 0.90625,33 L9.0625,33 C9.56298733,32.9999494 9.96869996,32.589764 9.96875,32.083759 L9.96875,22.2484843 C10.7899095,22.0202033 15.3719706,20.7432721 17.487793,20.1439932 C18.0674554,19.983717 18.638034,19.7388736 19.1162109,19.2993335 C19.1211921,19.2947551 19.1254198,19.2896484 19.1303711,19.2850173 L26.28125,19.2563847 C27.7679608,19.2511617 29,18.0146092 29,16.5076617 L29,4.59652842 C29,3.08958407 27.7717621,1.84780537 26.28125,1.84780537 L25.828125,1.84780537 L25.828125,0.93156435 C25.8319628,0.683596063 25.7362242,0.444644042 25.5627749,0.26928252 C25.3893256,0.0939209979 25.1529792,-0.00287308474 24.9077148,0.00100706519 C24.6673607,0.00479863977 24.4383412,0.104970624 24.2710408,0.279485147 C24.1037404,0.453999671 24.0118642,0.688560563 24.015625,0.93156435 L24.015625,1.84780537 L8.609375,1.84780537 L8.609375,0.93156435 C8.61321284,0.683596063 8.51747423,0.444644042 8.34402492,0.26928252 C8.1705756,0.0939209979 7.9342292,-0.00287308474 7.68896484,0.00100706519 C7.6606601,-0.000335688396 7.63230865,-0.000335688396 7.60400391,0.00100706519 Z M6.34375,3.68028741 L26.28125,3.68028741 C26.7989879,3.68028741 27.1875,4.07308268 27.1875,4.59652842 L27.1875,16.5076617 C27.1875,17.0311042 26.8027774,17.4220702 26.28125,17.4239027 L19.9375,17.4525352 C19.9376178,17.44267 19.9375,17.433793 19.9375,17.4239027 C19.9375,15.9166775 18.7095403,14.6751796 17.21875,14.6751796 L7.83056641,14.6751796 C9.11596422,13.7619805 9.96875,12.2530928 9.96875,10.552095 C9.96875,7.93388044 7.96947958,5.77410566 5.4375,5.54140197 L5.4375,4.59652842 C5.4375,4.07308268 5.82601209,3.68028741 6.34375,3.68028741 Z M4.984375,7.34525148 C6.74688716,7.34525148 8.15625,8.77015149 8.15625,10.552095 C8.15625,12.3340381 6.74688716,13.7589386 4.984375,13.7589386 C3.22186239,13.7589386 1.8125,12.3340381 1.8125,10.552095 C1.8125,8.77015149 3.22186239,7.34525148 4.984375,7.34525148 Z M21.6650391,13.7589386 C21.3412209,13.7742193 21.0500718,13.9630213 20.9012903,14.2542081 C20.7525088,14.5453949 20.7687046,14.8947161 20.9437756,15.170555 C21.1188466,15.4463938 21.4261879,15.6068323 21.75,15.5914206 L24.46875,15.5914206 C24.7955763,15.5960937 25.0995737,15.4224884 25.2643357,15.1370816 C25.4290978,14.8516748 25.4290978,14.4986845 25.2643357,14.2132777 C25.0995737,13.9278708 24.7955763,13.7542655 24.46875,13.7589386 L21.75,13.7589386 C21.7216953,13.7575959 21.6933438,13.7575959 21.6650391,13.7589386 Z M4.984375,16.5076617 L17.21875,16.5076617 C17.7299919,16.5076617 18.125,16.907025 18.125,17.4239027 C18.125,17.6871877 18.0694224,17.782119 17.8984375,17.9392883 C17.7274526,18.0964575 17.4078717,18.2720711 17.0063477,18.3830925 C17.0016277,18.3830552 16.9969075,18.3830552 16.9921875,18.3830925 C14.7036634,19.0312868 8.82177734,20.6593788 8.82177734,20.6593788 C8.42712556,20.7693411 8.15436937,21.1331138 8.15625,21.5469873 L8.15625,31.167518 L1.8125,31.167518 L1.8125,19.7145052 C1.8125,17.9220648 3.21148039,16.5076617 4.984375,16.5076617 Z" id="Shape"></path>
                    </g>
                </g>
            </g>
        </g>
    </g>
</svg>